%TF.GenerationSoftware,KiCad,Pcbnew,9.0.7*%
%TF.CreationDate,2026-09-03T23:29:26+06:00*%
%TF.ProjectId,Line Follower Robot ( PCB ),4c696e65-2046-46f6-9c6c-6f7765722052,rev?*%
%TF.SameCoordinates,Original*%
%TF.FileFunction,Profile,NP*%
%FSLAX46Y46*%
G04 Gerber Fmt 4.6, Leading zero omitted, Abs format (unit mm)*
G04 Created by KiCad (PCBNEW 9.0.7) date 2026-09-03 23:29:26*
%MOMM*%
%LPD*%
G01*
G04 APERTURE LIST*
%TA.AperFunction,Profile*%
%ADD10C,0.050000*%
%TD*%
%ADD11C,0.050000*%
G04 APERTURE END LIST*
D10*
X117875000Y-152275000D02*
X122525000Y-147600000D01*
X109100000Y-152275000D02*
X117875000Y-152275000D01*
X104650000Y-157325000D02*
X109100000Y-152275000D01*
X59800000Y-157325000D02*
X104650000Y-157325000D01*
D11*
X188875000Y-121650000D02*
X188200000Y-118675000D01*
X185975000Y-138750000D02*
X186000656Y-138682931D01*
X186026206Y-138615917D01*
X186051650Y-138548958D01*
X186076987Y-138482054D01*
X186102218Y-138415205D01*
X186127342Y-138348412D01*
X186152360Y-138281675D01*
X186177271Y-138214994D01*
X186202076Y-138148371D01*
X186226774Y-138081804D01*
X186251366Y-138015294D01*
X186275852Y-137948842D01*
X186300231Y-137882447D01*
X186324503Y-137816111D01*
X186348669Y-137749834D01*
X186372729Y-137683615D01*
X186396682Y-137617456D01*
X186420528Y-137551356D01*
X186444268Y-137485315D01*
X186467901Y-137419335D01*
X186491428Y-137353416D01*
X186514848Y-137287557D01*
X186538162Y-137221759D01*
X186561369Y-137156023D01*
X186584470Y-137090349D01*
X186607464Y-137024736D01*
X186630352Y-136959186D01*
X186653133Y-136893699D01*
X186675807Y-136828275D01*
X186698375Y-136762915D01*
X186720836Y-136697618D01*
X186743191Y-136632385D01*
X186765439Y-136567217D01*
X186787581Y-136502114D01*
X186809616Y-136437076D01*
X186831544Y-136372103D01*
X186853366Y-136307196D01*
X186875082Y-136242356D01*
X186896690Y-136177582D01*
X186918193Y-136112875D01*
X186939588Y-136048235D01*
X186960877Y-135983663D01*
X186982060Y-135919159D01*
X187003136Y-135854723D01*
X187024106Y-135790356D01*
X187044969Y-135726058D01*
X187065725Y-135661829D01*
X187086375Y-135597671D01*
X187106918Y-135533582D01*
X187127355Y-135469564D01*
X187147686Y-135405617D01*
X187157812Y-135373666D01*
X187167909Y-135341741D01*
X187177983Y-135309826D01*
X187188027Y-135277937D01*
X187198047Y-135246058D01*
X187208038Y-135214205D01*
X187218004Y-135182362D01*
X187227942Y-135150546D01*
X187237855Y-135118739D01*
X187247740Y-135086959D01*
X187257600Y-135055189D01*
X187267431Y-135023445D01*
X187277238Y-134991712D01*
X187287016Y-134960005D01*
X187296770Y-134928309D01*
X187306495Y-134896639D01*
X187316195Y-134864980D01*
X187325867Y-134833347D01*
X187335514Y-134801725D01*
X187345132Y-134770130D01*
X187354727Y-134738546D01*
X187364292Y-134706988D01*
X187373833Y-134675441D01*
X187383345Y-134643921D01*
X187392832Y-134612413D01*
X187402291Y-134580931D01*
X187411725Y-134549460D01*
X187421131Y-134518016D01*
X187430512Y-134486584D01*
X187439865Y-134455178D01*
X187449193Y-134423785D01*
X187458492Y-134392418D01*
X187467767Y-134361063D01*
X187477013Y-134329735D01*
X187486235Y-134298419D01*
X187495428Y-134267129D01*
X187504596Y-134235852D01*
X187513736Y-134204602D01*
X187522852Y-134173365D01*
X187531938Y-134142154D01*
X187541001Y-134110956D01*
X187550034Y-134079785D01*
X187559043Y-134048626D01*
X187568024Y-134017495D01*
X187576980Y-133986376D01*
X187585907Y-133955285D01*
X187594810Y-133924206D01*
X187603684Y-133893155D01*
X187612534Y-133862117D01*
X187621355Y-133831106D01*
X187630152Y-133800109D01*
X187638920Y-133769138D01*
X187647664Y-133738182D01*
X187656379Y-133707252D01*
X187665069Y-133676336D01*
X187673731Y-133645448D01*
X187682369Y-133614573D01*
X187690977Y-133583726D01*
X187699562Y-133552892D01*
X187708118Y-133522087D01*
X187716649Y-133491295D01*
X187725152Y-133460531D01*
X187733630Y-133429781D01*
X187742080Y-133399058D01*
X187750505Y-133368350D01*
X187758902Y-133337670D01*
X187767275Y-133307004D01*
X187775618Y-133276366D01*
X187783938Y-133245743D01*
X187792229Y-133215147D01*
X187800495Y-133184566D01*
X187808733Y-133154014D01*
X187816946Y-133123476D01*
X187825131Y-133092966D01*
X187833292Y-133062471D01*
X187841424Y-133032004D01*
X187849531Y-133001553D01*
X187857610Y-132971129D01*
X187865665Y-132940721D01*
X187873691Y-132910341D01*
X187881693Y-132879977D01*
X187889666Y-132849641D01*
X187897615Y-132819320D01*
X187905536Y-132789028D01*
X187913431Y-132758752D01*
X187921299Y-132728504D01*
X187929142Y-132698272D01*
X187936957Y-132668069D01*
X187944747Y-132637882D01*
X187952509Y-132607723D01*
X187960247Y-132577580D01*
X187967956Y-132547467D01*
X187975640Y-132517369D01*
X187983297Y-132487300D01*
X187990928Y-132457248D01*
X187998532Y-132427225D01*
X188006111Y-132397218D01*
X188013662Y-132367240D01*
X188021188Y-132337279D01*
X188028687Y-132307347D01*
X188036160Y-132277432D01*
X188043606Y-132247546D01*
X188051026Y-132217677D01*
X188058419Y-132187837D01*
X188065787Y-132158015D01*
X188073128Y-132128222D01*
X188080443Y-132098446D01*
X188087730Y-132068699D01*
X188094993Y-132038970D01*
X188102228Y-132009270D01*
X188109438Y-131979588D01*
X188116621Y-131949936D01*
X188123778Y-131920301D01*
X188130908Y-131890696D01*
X188138013Y-131861109D01*
X188145090Y-131831551D01*
X188152142Y-131802012D01*
X188159167Y-131772502D01*
X188166167Y-131743011D01*
X188173139Y-131713549D01*
X188180087Y-131684106D01*
X188187006Y-131654693D01*
X188193901Y-131625298D01*
X188200768Y-131595934D01*
X188207611Y-131566588D01*
X188214426Y-131537272D01*
X188221216Y-131507975D01*
X188227978Y-131478708D01*
X188234716Y-131449460D01*
X188241426Y-131420243D01*
X188248111Y-131391044D01*
X188254768Y-131361876D01*
X188261401Y-131332727D01*
X188268007Y-131303609D01*
X188274587Y-131274510D01*
X188281140Y-131245442D01*
X188287668Y-131216393D01*
X188294169Y-131187375D01*
X188300645Y-131158377D01*
X188307094Y-131129409D01*
X188313517Y-131100461D01*
X188319914Y-131071544D01*
X188326285Y-131042647D01*
X188332630Y-131013781D01*
X188338949Y-130984936D01*
X188345241Y-130956121D01*
X188351508Y-130927326D01*
X188357748Y-130898563D01*
X188363963Y-130869820D01*
X188370151Y-130841108D01*
X188376314Y-130812417D01*
X188382450Y-130783757D01*
X188388561Y-130755119D01*
X188394645Y-130726511D01*
X188400704Y-130697924D01*
X188406735Y-130669369D01*
X188412742Y-130640835D01*
X188418722Y-130612332D01*
X188424677Y-130583851D01*
X188430605Y-130555401D01*
X188436508Y-130526973D01*
X188442384Y-130498577D01*
X188448236Y-130470202D01*
X188454060Y-130441859D01*
X188459859Y-130413538D01*
X188465632Y-130385248D01*
X188471379Y-130356981D01*
X188477100Y-130328745D01*
X188482796Y-130300532D01*
X188488465Y-130272350D01*
X188494109Y-130244191D01*
X188499726Y-130216064D01*
X188505319Y-130187960D01*
X188510885Y-130159887D01*
X188516425Y-130131838D01*
X188521939Y-130103820D01*
X188527429Y-130075825D01*
X188532891Y-130047863D01*
X188538329Y-130019924D01*
X188543740Y-129992017D01*
X188549126Y-129964133D01*
X188554485Y-129936282D01*
X188559820Y-129908454D01*
X188565128Y-129880658D01*
X188570411Y-129852887D01*
X188575668Y-129825147D01*
X188580900Y-129797432D01*
X188586105Y-129769749D01*
X188591286Y-129742091D01*
X188596440Y-129714464D01*
X188601569Y-129686863D01*
X188606672Y-129659293D01*
X188611750Y-129631749D01*
X188616802Y-129604236D01*
X188621828Y-129576749D01*
X188626829Y-129549294D01*
X188631804Y-129521865D01*
X188636754Y-129494468D01*
X188641678Y-129467096D01*
X188646577Y-129439757D01*
X188651450Y-129412443D01*
X188656297Y-129385162D01*
X188661120Y-129357907D01*
X188665916Y-129330685D01*
X188670688Y-129303489D01*
X188675433Y-129276325D01*
X188680154Y-129249187D01*
X188684848Y-129222083D01*
X188689518Y-129195004D01*
X188694162Y-129167959D01*
X188698781Y-129140940D01*
X188703374Y-129113954D01*
X188707942Y-129086995D01*
X188712485Y-129060069D01*
X188717002Y-129033170D01*
X188721494Y-129006304D01*
X188725961Y-128979465D01*
X188730402Y-128952659D01*
X188734819Y-128925881D01*
X188739209Y-128899136D01*
X188743575Y-128872418D01*
X188747915Y-128845734D01*
X188752231Y-128819077D01*
X188756520Y-128792454D01*
X188760786Y-128765859D01*
X188765025Y-128739297D01*
X188769240Y-128712763D01*
X188773429Y-128686263D01*
X188777593Y-128659791D01*
X188781732Y-128633353D01*
X188785847Y-128606943D01*
X188789935Y-128580567D01*
X188793999Y-128554219D01*
X188798038Y-128527905D01*
X188802052Y-128501621D01*
X188806041Y-128475370D01*
X188810005Y-128449148D01*
X188813944Y-128422959D01*
X188817858Y-128396801D01*
X188821747Y-128370676D01*
X188825611Y-128344580D01*
X188829450Y-128318519D01*
X188833264Y-128292487D01*
X188837053Y-128266490D01*
X188840818Y-128240522D01*
X188844558Y-128214588D01*
X188848273Y-128188685D01*
X188851962Y-128162815D01*
X188855628Y-128136976D01*
X188859268Y-128111171D01*
X188862884Y-128085397D01*
X188866475Y-128059657D01*
X188870041Y-128033948D01*
X188873583Y-128008273D01*
X188877100Y-127982629D01*
X188880592Y-127957019D01*
X188884060Y-127931441D01*
X188887503Y-127905897D01*
X188890921Y-127880384D01*
X188894315Y-127854906D01*
X188897684Y-127829459D01*
X188901029Y-127804047D01*
X188904349Y-127778667D01*
X188907645Y-127753321D01*
X188910916Y-127728008D01*
X188914163Y-127702729D01*
X188917385Y-127677482D01*
X188920583Y-127652270D01*
X188923756Y-127627091D01*
X188926906Y-127601946D01*
X188930030Y-127576834D01*
X188933131Y-127551756D01*
X188936207Y-127526712D01*
X188939258Y-127501702D01*
X188942286Y-127476726D01*
X188945289Y-127451784D01*
X188948268Y-127426876D01*
X188951223Y-127402003D01*
X188954153Y-127377163D01*
X188957060Y-127352358D01*
X188959942Y-127327587D01*
X188962800Y-127302851D01*
X188965634Y-127278149D01*
X188968444Y-127253482D01*
X188971230Y-127228849D01*
X188973992Y-127204252D01*
X188976730Y-127179689D01*
X188979443Y-127155161D01*
X188982133Y-127130667D01*
X188984799Y-127106209D01*
X188987441Y-127081786D01*
X188990059Y-127057398D01*
X188992653Y-127033045D01*
X188995224Y-127008727D01*
X188997770Y-126984445D01*
X189000293Y-126960198D01*
X189002792Y-126935986D01*
X189005267Y-126911810D01*
X189007719Y-126887669D01*
X189010146Y-126863565D01*
X189012550Y-126839496D01*
X189014931Y-126815462D01*
X189017288Y-126791465D01*
X189019621Y-126767503D01*
X189021930Y-126743577D01*
X189024216Y-126719687D01*
X189026479Y-126695834D01*
X189028718Y-126672017D01*
X189030933Y-126648236D01*
X189033126Y-126624491D01*
X189035294Y-126600782D01*
X189037439Y-126577110D01*
X189039561Y-126553475D01*
X189041660Y-126529875D01*
X189043735Y-126506313D01*
X189045787Y-126482787D01*
X189047816Y-126459298D01*
X189049821Y-126435846D01*
X189051803Y-126412431D01*
X189053762Y-126389052D01*
X189055698Y-126365711D01*
X189057611Y-126342406D01*
X189059500Y-126319140D01*
X189061367Y-126295909D01*
X189063210Y-126272717D01*
X189065031Y-126249561D01*
X189066828Y-126226443D01*
X189068603Y-126203362D01*
X189070355Y-126180320D01*
X189072083Y-126157313D01*
X189073789Y-126134346D01*
X189075472Y-126111415D01*
X189077132Y-126088524D01*
X189078770Y-126065668D01*
X189080384Y-126042852D01*
X189081976Y-126020073D01*
X189083546Y-125997333D01*
X189085092Y-125974629D01*
X189086616Y-125951965D01*
X189088118Y-125929338D01*
X189089596Y-125906751D01*
X189091053Y-125884200D01*
X189092486Y-125861690D01*
X189093898Y-125839216D01*
X189095286Y-125816782D01*
X189096653Y-125794385D01*
X189097997Y-125772029D01*
X189099319Y-125749709D01*
X189100618Y-125727431D01*
X189101895Y-125705188D01*
X189103150Y-125682987D01*
X189104383Y-125660823D01*
X189105593Y-125638700D01*
X189106781Y-125616613D01*
X189107947Y-125594568D01*
X189109092Y-125572560D01*
X189110214Y-125550594D01*
X189111314Y-125528664D01*
X189112392Y-125506776D01*
X189113448Y-125484925D01*
X189114482Y-125463116D01*
X189115494Y-125441344D01*
X189116485Y-125419614D01*
X189117453Y-125397921D01*
X189118400Y-125376271D01*
X189119325Y-125354657D01*
X189120228Y-125333086D01*
X189121110Y-125311552D01*
X189121970Y-125290061D01*
X189122809Y-125268607D01*
X189123626Y-125247196D01*
X189124421Y-125225822D01*
X189125195Y-125204492D01*
X189125947Y-125183198D01*
X189126678Y-125161948D01*
X189127388Y-125140735D01*
X189128076Y-125119565D01*
X189128743Y-125098433D01*
X189129389Y-125077345D01*
X189130013Y-125056293D01*
X189130616Y-125035286D01*
X189131199Y-125014315D01*
X189131759Y-124993390D01*
X189132299Y-124972501D01*
X189132818Y-124951657D01*
X189133316Y-124930849D01*
X189133793Y-124910087D01*
X189134249Y-124889362D01*
X189134684Y-124868681D01*
X189135098Y-124848038D01*
X189135491Y-124827440D01*
X189135864Y-124806879D01*
X189136215Y-124786363D01*
X189136546Y-124765884D01*
X189136857Y-124745451D01*
X189137147Y-124725055D01*
X189137416Y-124704705D01*
X189137665Y-124684392D01*
X189137893Y-124664125D01*
X189138101Y-124643895D01*
X189138288Y-124623711D01*
X189138455Y-124603565D01*
X189138602Y-124583464D01*
X189138728Y-124563401D01*
X189138834Y-124543384D01*
X189138920Y-124523405D01*
X189138985Y-124503472D01*
X189139031Y-124483576D01*
X189139057Y-124463728D01*
X189139062Y-124443916D01*
X189139047Y-124424152D01*
X189139013Y-124404424D01*
X189138958Y-124384744D01*
X189138884Y-124365101D01*
X189138790Y-124345506D01*
X189138676Y-124325947D01*
X189138542Y-124306437D01*
X189138389Y-124286963D01*
X189138216Y-124267537D01*
X189138023Y-124248149D01*
X189137811Y-124228808D01*
X189137579Y-124209505D01*
X189137328Y-124190249D01*
X189137058Y-124171031D01*
X189136768Y-124151862D01*
X189136458Y-124132729D01*
X189136130Y-124113645D01*
X189135782Y-124094598D01*
X189135415Y-124075600D01*
X189135028Y-124056639D01*
X189134623Y-124037726D01*
X189134198Y-124018851D01*
X189133755Y-124000025D01*
X189133292Y-123981236D01*
X189132811Y-123962497D01*
X189132311Y-123943794D01*
X189131791Y-123925141D01*
X189131253Y-123906524D01*
X189130697Y-123887958D01*
X189130121Y-123869428D01*
X189129527Y-123850948D01*
X189128915Y-123832505D01*
X189128284Y-123814113D01*
X189127634Y-123795757D01*
X189126966Y-123777451D01*
X189126279Y-123759182D01*
X189125574Y-123740963D01*
X189124851Y-123722782D01*
X189124109Y-123704650D01*
X189123349Y-123686556D01*
X189122572Y-123668512D01*
X189121775Y-123650505D01*
X189120961Y-123632549D01*
X189120129Y-123614630D01*
X189119279Y-123596762D01*
X189118411Y-123578930D01*
X189117525Y-123561150D01*
X189116621Y-123543406D01*
X189115700Y-123525713D01*
X189114760Y-123508058D01*
X189113804Y-123490453D01*
X189112829Y-123472886D01*
X189111837Y-123455370D01*
X189110827Y-123437890D01*
X189109800Y-123420462D01*
X189108755Y-123403071D01*
X189107694Y-123385732D01*
X189106614Y-123368429D01*
X189105518Y-123351179D01*
X189104404Y-123333965D01*
X189103273Y-123316802D01*
X189102125Y-123299677D01*
X189100960Y-123282604D01*
X189099778Y-123265567D01*
X189098579Y-123248582D01*
X189097363Y-123231635D01*
X189096130Y-123214739D01*
X189094880Y-123197880D01*
X189093614Y-123181074D01*
X189092331Y-123164304D01*
X189091032Y-123147587D01*
X189089715Y-123130906D01*
X189088382Y-123114278D01*
X189087033Y-123097686D01*
X189085667Y-123081147D01*
X189084285Y-123064645D01*
X189082887Y-123048195D01*
X189081472Y-123031783D01*
X189080041Y-123015422D01*
X189078594Y-122999099D01*
X189077131Y-122982828D01*
X189075652Y-122966594D01*
X189074157Y-122950413D01*
X189072645Y-122934269D01*
X189071119Y-122918177D01*
X189069575Y-122902123D01*
X189068017Y-122886121D01*
X189066442Y-122870156D01*
X189064853Y-122854244D01*
X189063247Y-122838368D01*
X189061626Y-122822546D01*
X189059989Y-122806760D01*
X189058337Y-122791028D01*
X189056669Y-122775332D01*
X189054987Y-122759690D01*
X189053288Y-122744083D01*
X189051575Y-122728531D01*
X189049846Y-122713015D01*
X189048103Y-122697552D01*
X189046344Y-122682126D01*
X189044571Y-122666753D01*
X189042782Y-122651417D01*
X189040979Y-122636134D01*
X189039160Y-122620888D01*
X189037327Y-122605695D01*
X189035479Y-122590538D01*
X189033617Y-122575436D01*
X189031739Y-122560369D01*
X189029848Y-122545357D01*
X189027942Y-122530380D01*
X189026022Y-122515458D01*
X189024086Y-122500572D01*
X189022138Y-122485739D01*
X189020174Y-122470943D01*
X189018197Y-122456200D01*
X189016204Y-122441494D01*
X189014199Y-122426842D01*
X189012179Y-122412225D01*
X189010145Y-122397663D01*
X189008097Y-122383137D01*
X189006036Y-122368664D01*
X189003960Y-122354228D01*
X189001872Y-122339846D01*
X188999768Y-122325499D01*
X188997653Y-122311207D01*
X188995522Y-122296951D01*
X188993379Y-122282749D01*
X188991222Y-122268582D01*
X188989052Y-122254470D01*
X188986868Y-122240393D01*
X188984672Y-122226371D01*
X188982461Y-122212384D01*
X188980238Y-122198452D01*
X188978001Y-122184555D01*
X188975753Y-122170712D01*
X188973490Y-122156905D01*
X188971215Y-122143152D01*
X188968927Y-122129435D01*
X188966627Y-122115772D01*
X188964312Y-122102144D01*
X188961987Y-122088571D01*
X188959647Y-122075033D01*
X188957297Y-122061549D01*
X188954932Y-122048101D01*
X188952557Y-122034707D01*
X188950167Y-122021348D01*
X188947767Y-122008043D01*
X188945353Y-121994773D01*
X188942928Y-121981558D01*
X188940490Y-121968378D01*
X188938041Y-121955252D01*
X188935579Y-121942161D01*
X188933106Y-121929125D01*
X188930619Y-121916123D01*
X188928123Y-121903176D01*
X188925613Y-121890263D01*
X188923093Y-121877405D01*
X188920560Y-121864582D01*
X188918017Y-121851812D01*
X188915460Y-121839078D01*
X188912894Y-121826397D01*
X188910314Y-121813752D01*
X188907725Y-121801160D01*
X188905123Y-121788603D01*
X188902512Y-121776100D01*
X188899887Y-121763632D01*
X188897254Y-121751218D01*
X188894607Y-121738838D01*
X188891951Y-121726513D01*
X188889282Y-121714221D01*
X188886605Y-121701984D01*
X188883915Y-121689781D01*
X188881215Y-121677632D01*
X188878504Y-121665517D01*
X188875000Y-121650000D01*
X179000000Y-147850000D02*
X179017189Y-147831331D01*
X179034329Y-147812745D01*
X179051430Y-147794230D01*
X179068482Y-147775798D01*
X179085496Y-147757437D01*
X179102460Y-147739158D01*
X179119387Y-147720949D01*
X179136265Y-147702822D01*
X179153105Y-147684765D01*
X179169897Y-147666789D01*
X179186651Y-147648882D01*
X179203357Y-147631056D01*
X179220027Y-147613299D01*
X179236647Y-147595622D01*
X179253232Y-147578012D01*
X179269769Y-147560484D01*
X179286270Y-147543022D01*
X179302722Y-147525640D01*
X179319139Y-147508324D01*
X179335509Y-147491088D01*
X179351843Y-147473918D01*
X179368130Y-147456827D01*
X179384382Y-147439801D01*
X179400586Y-147422853D01*
X179416757Y-147405971D01*
X179432879Y-147389166D01*
X179448969Y-147372426D01*
X179465011Y-147355764D01*
X179481020Y-147339164D01*
X179496981Y-147322643D01*
X179512910Y-147306184D01*
X179528792Y-147289802D01*
X179544642Y-147273482D01*
X179560444Y-147257240D01*
X179576215Y-147241058D01*
X179591939Y-147224953D01*
X179607632Y-147208909D01*
X179623278Y-147192941D01*
X179638894Y-147177032D01*
X179654462Y-147161200D01*
X179670001Y-147145427D01*
X179685493Y-147129730D01*
X179700955Y-147114091D01*
X179716371Y-147098527D01*
X179731758Y-147083021D01*
X179747099Y-147067590D01*
X179762410Y-147052217D01*
X179777676Y-147036917D01*
X179792913Y-147021675D01*
X179808105Y-147006506D01*
X179823269Y-146991394D01*
X179838386Y-146976355D01*
X179853477Y-146961371D01*
X179868522Y-146946461D01*
X179883540Y-146931606D01*
X179898513Y-146916824D01*
X179913460Y-146902095D01*
X179928360Y-146887439D01*
X179943236Y-146872837D01*
X179958066Y-146858307D01*
X179972871Y-146843829D01*
X179987631Y-146829423D01*
X180002366Y-146815070D01*
X180017056Y-146800788D01*
X180031723Y-146786557D01*
X180046344Y-146772397D01*
X180060942Y-146758288D01*
X180075494Y-146744251D01*
X180090025Y-146730262D01*
X180104510Y-146716345D01*
X180118973Y-146702476D01*
X180133392Y-146688678D01*
X180147789Y-146674928D01*
X180162141Y-146661249D01*
X180176472Y-146647617D01*
X180190759Y-146634054D01*
X180205026Y-146620539D01*
X180219248Y-146607093D01*
X180233450Y-146593693D01*
X180247608Y-146580362D01*
X180261748Y-146567077D01*
X180275842Y-146553860D01*
X180289919Y-146540688D01*
X180303952Y-146527585D01*
X180317967Y-146514525D01*
X180331937Y-146501534D01*
X180345891Y-146488585D01*
X180359801Y-146475705D01*
X180387544Y-146450096D01*
X180415168Y-146424705D01*
X180442675Y-146399530D01*
X180470067Y-146374569D01*
X180497345Y-146349819D01*
X180524511Y-146325278D01*
X180551567Y-146300943D01*
X180578514Y-146276814D01*
X180605354Y-146252887D01*
X180632090Y-146229160D01*
X180658722Y-146205630D01*
X180685254Y-146182296D01*
X180711686Y-146159155D01*
X180738022Y-146136205D01*
X180764263Y-146113443D01*
X180790410Y-146090866D01*
X180816468Y-146068473D01*
X180842437Y-146046260D01*
X180868320Y-146024226D01*
X180894120Y-146002367D01*
X180919839Y-145980681D01*
X180945479Y-145959165D01*
X180971043Y-145937817D01*
X180996534Y-145916633D01*
X181021955Y-145895611D01*
X181047308Y-145874748D01*
X181072597Y-145854040D01*
X181097825Y-145833486D01*
X181122995Y-145813081D01*
X181148111Y-145792822D01*
X181173175Y-145772707D01*
X181198193Y-145752731D01*
X181223168Y-145732891D01*
X181248103Y-145713184D01*
X181273004Y-145693605D01*
X181297875Y-145674151D01*
X181322721Y-145654817D01*
X181347546Y-145635599D01*
X181372357Y-145616494D01*
X181397159Y-145597495D01*
X181421958Y-145578598D01*
X181446761Y-145559798D01*
X181471574Y-145541090D01*
X181496406Y-145522467D01*
X181521264Y-145503923D01*
X181546158Y-145485452D01*
X181571095Y-145467047D01*
X181596088Y-145448700D01*
X181621147Y-145430402D01*
X181646284Y-145412145D01*
X181671512Y-145393919D01*
X181696848Y-145375714D01*
X181722307Y-145357518D01*
X181747907Y-145339317D01*
X181773670Y-145321098D01*
X181799620Y-145302843D01*
X181825782Y-145284536D01*
X181852187Y-145266154D01*
X181878872Y-145247674D01*
X181905877Y-145229068D01*
X181933252Y-145210303D01*
X181961055Y-145191339D01*
X181989357Y-145172130D01*
X182018248Y-145152615D01*
X182047839Y-145132723D01*
X182078275Y-145112356D01*
X182109749Y-145091388D01*
X182142532Y-145069641D01*
X182177018Y-145046855D01*
X182213834Y-145022622D01*
X182254083Y-144996219D01*
X182300088Y-144966127D01*
X182363415Y-144924789D01*
X182420463Y-144887552D01*
X182448566Y-144869181D01*
X182476396Y-144850955D01*
X182503960Y-144832859D01*
X182531265Y-144814877D01*
X182558318Y-144796994D01*
X182585126Y-144779196D01*
X182598439Y-144770323D01*
X182611694Y-144761465D01*
X182624890Y-144752621D01*
X182638029Y-144743789D01*
X182651112Y-144734966D01*
X182664139Y-144726150D01*
X182677111Y-144717340D01*
X182690029Y-144708534D01*
X182702894Y-144699730D01*
X182715707Y-144690926D01*
X182728468Y-144682120D01*
X182741179Y-144673311D01*
X182753839Y-144664495D01*
X182766451Y-144655672D01*
X182779014Y-144646840D01*
X182791531Y-144637996D01*
X182804000Y-144629138D01*
X182816424Y-144620266D01*
X182828803Y-144611376D01*
X182841138Y-144602467D01*
X182853430Y-144593537D01*
X182865679Y-144584584D01*
X182877887Y-144575607D01*
X182890054Y-144566603D01*
X182902182Y-144557570D01*
X182914270Y-144548507D01*
X182926320Y-144539411D01*
X182938332Y-144530281D01*
X182950308Y-144521115D01*
X182962248Y-144511911D01*
X182974154Y-144502667D01*
X182986025Y-144493381D01*
X182997863Y-144484051D01*
X183009668Y-144474675D01*
X183021442Y-144465251D01*
X183033185Y-144455778D01*
X183044898Y-144446254D01*
X183056582Y-144436676D01*
X183068238Y-144427043D01*
X183079866Y-144417352D01*
X183091468Y-144407603D01*
X183103044Y-144397793D01*
X183114594Y-144387919D01*
X183126121Y-144377981D01*
X183137624Y-144367977D01*
X183149105Y-144357903D01*
X183160564Y-144347759D01*
X183172003Y-144337543D01*
X183183421Y-144327252D01*
X183194820Y-144316885D01*
X183206201Y-144306440D01*
X183217564Y-144295915D01*
X183228911Y-144285308D01*
X183240241Y-144274616D01*
X183251557Y-144263840D01*
X183262859Y-144252975D01*
X183274147Y-144242021D01*
X183285422Y-144230976D01*
X183296686Y-144219837D01*
X183307939Y-144208602D01*
X183319182Y-144197271D01*
X183330415Y-144185840D01*
X183341641Y-144174309D01*
X183352858Y-144162674D01*
X183364069Y-144150935D01*
X183375274Y-144139088D01*
X183386474Y-144127134D01*
X183397670Y-144115068D01*
X183408862Y-144102890D01*
X183420051Y-144090598D01*
X183431239Y-144078190D01*
X183442426Y-144065663D01*
X183448019Y-144059355D01*
X183453613Y-144053016D01*
X183459206Y-144046647D01*
X183464800Y-144040248D01*
X183470395Y-144033817D01*
X183475989Y-144027355D01*
X183481585Y-144020862D01*
X183487181Y-144014336D01*
X183492777Y-144007779D01*
X183498375Y-144001190D01*
X183503974Y-143994569D01*
X183509574Y-143987915D01*
X183515175Y-143981227D01*
X183520777Y-143974507D01*
X183526381Y-143967754D01*
X183531986Y-143960966D01*
X183537593Y-143954145D01*
X183543202Y-143947290D01*
X183548812Y-143940401D01*
X183554425Y-143933477D01*
X183560039Y-143926518D01*
X183565656Y-143919525D01*
X183571275Y-143912496D01*
X183576896Y-143905431D01*
X183582520Y-143898331D01*
X183588146Y-143891194D01*
X183593775Y-143884022D01*
X183599407Y-143876813D01*
X183605041Y-143869568D01*
X183610679Y-143862285D01*
X183616319Y-143854965D01*
X183621963Y-143847608D01*
X183627610Y-143840213D01*
X183633261Y-143832781D01*
X183638915Y-143825310D01*
X183644572Y-143817801D01*
X183650233Y-143810253D01*
X183655898Y-143802666D01*
X183661567Y-143795041D01*
X183667240Y-143787376D01*
X183672917Y-143779671D01*
X183678599Y-143771927D01*
X183684284Y-143764143D01*
X183689974Y-143756318D01*
X183695669Y-143748453D01*
X183701368Y-143740547D01*
X183707072Y-143732600D01*
X183712781Y-143724612D01*
X183718495Y-143716583D01*
X183724213Y-143708511D01*
X183729937Y-143700398D01*
X183735666Y-143692243D01*
X183747141Y-143675805D01*
X183758638Y-143659195D01*
X183770157Y-143642412D01*
X183781701Y-143625453D01*
X183793270Y-143608317D01*
X183804864Y-143591002D01*
X183816484Y-143573506D01*
X183828132Y-143555827D01*
X183839808Y-143537963D01*
X183851512Y-143519912D01*
X183863247Y-143501673D01*
X183875012Y-143483243D01*
X183886808Y-143464620D01*
X183898636Y-143445803D01*
X183910498Y-143426790D01*
X183922393Y-143407578D01*
X183934323Y-143388166D01*
X183946289Y-143368552D01*
X183958291Y-143348734D01*
X183970330Y-143328711D01*
X183982407Y-143308479D01*
X183994523Y-143288038D01*
X184006678Y-143267385D01*
X184018874Y-143246519D01*
X184031112Y-143225437D01*
X184043391Y-143204138D01*
X184055714Y-143182620D01*
X184068080Y-143160881D01*
X184080491Y-143138918D01*
X184092947Y-143116731D01*
X184105450Y-143094317D01*
X184118000Y-143071674D01*
X184130597Y-143048801D01*
X184143244Y-143025694D01*
X184155940Y-143002354D01*
X184168686Y-142978777D01*
X184181484Y-142954962D01*
X184194334Y-142930907D01*
X184207237Y-142906609D01*
X184220193Y-142882068D01*
X184233205Y-142857280D01*
X184246271Y-142832245D01*
X184259394Y-142806960D01*
X184272574Y-142781424D01*
X184285811Y-142755634D01*
X184299108Y-142729588D01*
X184312464Y-142703286D01*
X184325880Y-142676724D01*
X184339358Y-142649900D01*
X184352897Y-142622814D01*
X184366500Y-142595463D01*
X184380166Y-142567845D01*
X184393896Y-142539958D01*
X184407692Y-142511801D01*
X184421555Y-142483370D01*
X184435484Y-142454666D01*
X184449481Y-142425685D01*
X184463547Y-142396425D01*
X184477682Y-142366886D01*
X184491887Y-142337064D01*
X184506164Y-142306959D01*
X184520512Y-142276567D01*
X184534934Y-142245888D01*
X184549429Y-142214918D01*
X184563999Y-142183657D01*
X184578643Y-142152103D01*
X184593364Y-142120253D01*
X184608162Y-142088106D01*
X184623038Y-142055659D01*
X184637992Y-142022912D01*
X184653026Y-141989861D01*
X184668140Y-141956505D01*
X184683335Y-141922843D01*
X184698612Y-141888871D01*
X184713972Y-141854589D01*
X184729415Y-141819994D01*
X184744943Y-141785085D01*
X184760556Y-141749859D01*
X184776255Y-141714315D01*
X184792041Y-141678450D01*
X184807914Y-141642264D01*
X184823876Y-141605753D01*
X184839928Y-141568917D01*
X184856070Y-141531752D01*
X184872303Y-141494258D01*
X184888627Y-141456432D01*
X184905045Y-141418273D01*
X184921556Y-141379778D01*
X184938161Y-141340946D01*
X184954861Y-141301774D01*
X184971658Y-141262261D01*
X184988551Y-141222405D01*
X185005542Y-141182204D01*
X185022632Y-141141656D01*
X185039820Y-141100759D01*
X185057109Y-141059512D01*
X185074499Y-141017912D01*
X185091991Y-140975957D01*
X185109585Y-140933646D01*
X185127283Y-140890976D01*
X185145085Y-140847946D01*
X185162993Y-140804554D01*
X185181006Y-140760798D01*
X185199126Y-140716676D01*
X185217353Y-140672186D01*
X185235690Y-140627326D01*
X185254135Y-140582095D01*
X185272690Y-140536489D01*
X185291357Y-140490509D01*
X185310135Y-140444151D01*
X185329025Y-140397413D01*
X185348030Y-140350295D01*
X185367148Y-140302793D01*
X185386381Y-140254906D01*
X185405731Y-140206632D01*
X185425197Y-140157969D01*
X185444780Y-140108916D01*
X185464482Y-140059470D01*
X185484303Y-140009629D01*
X185504245Y-139959391D01*
X185524307Y-139908756D01*
X185544491Y-139857720D01*
X185564797Y-139806282D01*
X185585227Y-139754439D01*
X185605781Y-139702191D01*
X185626459Y-139649535D01*
X185647264Y-139596469D01*
X185668196Y-139542991D01*
X185689254Y-139489099D01*
X185710442Y-139434792D01*
X185731758Y-139380068D01*
X185753205Y-139324924D01*
X185774782Y-139269359D01*
X185796491Y-139213370D01*
X185818332Y-139156957D01*
X185840307Y-139100116D01*
X185862415Y-139042847D01*
X185884659Y-138985147D01*
X185907038Y-138927014D01*
X185929555Y-138868446D01*
X185952208Y-138809442D01*
X185975000Y-138750000D01*
X187525000Y-55575000D02*
X187533344Y-55627663D01*
X187541654Y-55680628D01*
X187549932Y-55733896D01*
X187558176Y-55787469D01*
X187566386Y-55841347D01*
X187574562Y-55895530D01*
X187582703Y-55950019D01*
X187590809Y-56004816D01*
X187598880Y-56059920D01*
X187606916Y-56115332D01*
X187614915Y-56171053D01*
X187622879Y-56227084D01*
X187630805Y-56283425D01*
X187638695Y-56340077D01*
X187646548Y-56397040D01*
X187654363Y-56454315D01*
X187662140Y-56511903D01*
X187669878Y-56569804D01*
X187677578Y-56628018D01*
X187685239Y-56686546D01*
X187692861Y-56745390D01*
X187700443Y-56804548D01*
X187707985Y-56864022D01*
X187715487Y-56923812D01*
X187722947Y-56983918D01*
X187730367Y-57044341D01*
X187737745Y-57105082D01*
X187745082Y-57166140D01*
X187752376Y-57227516D01*
X187759627Y-57289210D01*
X187766836Y-57351223D01*
X187774001Y-57413554D01*
X187781123Y-57476205D01*
X187788201Y-57539175D01*
X187795234Y-57602465D01*
X187802222Y-57666074D01*
X187809166Y-57730003D01*
X187816063Y-57794252D01*
X187822915Y-57858822D01*
X187829721Y-57923711D01*
X187836480Y-57988920D01*
X187843191Y-58054450D01*
X187849856Y-58120300D01*
X187856473Y-58186469D01*
X187863041Y-58252959D01*
X187869561Y-58319769D01*
X187876032Y-58386898D01*
X187882453Y-58454346D01*
X187888825Y-58522114D01*
X187895147Y-58590201D01*
X187901418Y-58658606D01*
X187907638Y-58727330D01*
X187913807Y-58796371D01*
X187919924Y-58865730D01*
X187925989Y-58935405D01*
X187932001Y-59005397D01*
X187937961Y-59075704D01*
X187943867Y-59146327D01*
X187949720Y-59217263D01*
X187955518Y-59288514D01*
X187961262Y-59360077D01*
X187966951Y-59431952D01*
X187972584Y-59504137D01*
X187978162Y-59576633D01*
X187983683Y-59649438D01*
X187989148Y-59722550D01*
X187994556Y-59795969D01*
X187999907Y-59869693D01*
X188005199Y-59943721D01*
X188010434Y-60018051D01*
X188015609Y-60092683D01*
X188020726Y-60167614D01*
X188025783Y-60242842D01*
X188030780Y-60318367D01*
X188035717Y-60394186D01*
X188040592Y-60470296D01*
X188045407Y-60546697D01*
X188050160Y-60623386D01*
X188054851Y-60700361D01*
X188059479Y-60777619D01*
X188064045Y-60855158D01*
X188068547Y-60932976D01*
X188072985Y-61011069D01*
X188077359Y-61089434D01*
X188081669Y-61168070D01*
X188085913Y-61246972D01*
X188090092Y-61326137D01*
X188094204Y-61405562D01*
X188098251Y-61485244D01*
X188102230Y-61565178D01*
X188106142Y-61645361D01*
X188109987Y-61725789D01*
X188113763Y-61806456D01*
X188117471Y-61887360D01*
X188121110Y-61968494D01*
X188124679Y-62049855D01*
X188128179Y-62131437D01*
X188131608Y-62213235D01*
X188134966Y-62295242D01*
X188138254Y-62377454D01*
X188141469Y-62459863D01*
X188144613Y-62542464D01*
X188147684Y-62625250D01*
X188150682Y-62708213D01*
X188153607Y-62791347D01*
X188156459Y-62874643D01*
X188159236Y-62958093D01*
X188161938Y-63041689D01*
X188164566Y-63125421D01*
X188167118Y-63209281D01*
X188169595Y-63293258D01*
X188171995Y-63377342D01*
X188174319Y-63461522D01*
X188176566Y-63545787D01*
X188178735Y-63630124D01*
X188180827Y-63714520D01*
X188182841Y-63798963D01*
X188184776Y-63883437D01*
X188186632Y-63967928D01*
X188188410Y-64052420D01*
X188190108Y-64136896D01*
X188191726Y-64221339D01*
X188193264Y-64305729D01*
X188194722Y-64390047D01*
X188196099Y-64474270D01*
X188197396Y-64558377D01*
X188198611Y-64642344D01*
X188199745Y-64726144D01*
X188200798Y-64809751D01*
X188201769Y-64893133D01*
X188202659Y-64976261D01*
X188203467Y-65059099D01*
X188204193Y-65141612D01*
X188204837Y-65223759D01*
X188205400Y-65305497D01*
X188205881Y-65386779D01*
X188206281Y-65467555D01*
X188206600Y-65547769D01*
X188206839Y-65627359D01*
X188206997Y-65706257D01*
X188207076Y-65784389D01*
X188207077Y-65861671D01*
X188207000Y-65938009D01*
X188206847Y-66013296D01*
X188206619Y-66087411D01*
X188206318Y-66160215D01*
X188205947Y-66231546D01*
X188205509Y-66301213D01*
X188205007Y-66368986D01*
X188204445Y-66434586D01*
X188203831Y-66497662D01*
X188203173Y-66557761D01*
X188202482Y-66614272D01*
X188201775Y-66666318D01*
X188201082Y-66712527D01*
X188200454Y-66750388D01*
X188200000Y-66775000D01*
X183650000Y-45775000D02*
X183697006Y-45865964D01*
X183743832Y-45956408D01*
X183790486Y-46046347D01*
X183836975Y-46135795D01*
X183883306Y-46224769D01*
X183929489Y-46313285D01*
X183975531Y-46401362D01*
X184021443Y-46489018D01*
X184067235Y-46576275D01*
X184112918Y-46663154D01*
X184158505Y-46749678D01*
X184204007Y-46835875D01*
X184249441Y-46921772D01*
X184294822Y-47007399D01*
X184340167Y-47092790D01*
X184385496Y-47177983D01*
X184430830Y-47263017D01*
X184476194Y-47347940D01*
X184521615Y-47432801D01*
X184567123Y-47517659D01*
X184612755Y-47602580D01*
X184658549Y-47687639D01*
X184704555Y-47772924D01*
X184750827Y-47858537D01*
X184797431Y-47944598D01*
X184844445Y-48031254D01*
X184891967Y-48118681D01*
X184940116Y-48207098D01*
X184989044Y-48296784D01*
X185038950Y-48388099D01*
X185090100Y-48481529D01*
X185142867Y-48577752D01*
X185197800Y-48677767D01*
X185255774Y-48783160D01*
X185318337Y-48896741D01*
X185388770Y-49024461D01*
X185484043Y-49197077D01*
X185546285Y-49309838D01*
X185606732Y-49419407D01*
X185636295Y-49473036D01*
X185665424Y-49525919D01*
X185694124Y-49578070D01*
X185722400Y-49629508D01*
X185750257Y-49680248D01*
X185777701Y-49730308D01*
X185804736Y-49779704D01*
X185831368Y-49828454D01*
X185857601Y-49876573D01*
X185883440Y-49924080D01*
X185908891Y-49970990D01*
X185933958Y-50017320D01*
X185958647Y-50063087D01*
X185982962Y-50108309D01*
X186006909Y-50153001D01*
X186018746Y-50175153D01*
X186030493Y-50197180D01*
X186042150Y-50219083D01*
X186053718Y-50240864D01*
X186065198Y-50262525D01*
X186076590Y-50284069D01*
X186087895Y-50305497D01*
X186099114Y-50326812D01*
X186110247Y-50348015D01*
X186121294Y-50369109D01*
X186132258Y-50390096D01*
X186143137Y-50410978D01*
X186153933Y-50431757D01*
X186164646Y-50452435D01*
X186175277Y-50473014D01*
X186185827Y-50493497D01*
X186196296Y-50513885D01*
X186206685Y-50534181D01*
X186216994Y-50554386D01*
X186227225Y-50574503D01*
X186237377Y-50594534D01*
X186247451Y-50614481D01*
X186257449Y-50634346D01*
X186267370Y-50654131D01*
X186277216Y-50673838D01*
X186286986Y-50693470D01*
X186296682Y-50713028D01*
X186306304Y-50732515D01*
X186315853Y-50751932D01*
X186325329Y-50771282D01*
X186334733Y-50790567D01*
X186344066Y-50809788D01*
X186353328Y-50828949D01*
X186362520Y-50848051D01*
X186371643Y-50867096D01*
X186380697Y-50886086D01*
X186389682Y-50905024D01*
X186398600Y-50923912D01*
X186407451Y-50942750D01*
X186416236Y-50961543D01*
X186424955Y-50980292D01*
X186433610Y-50998998D01*
X186442199Y-51017664D01*
X186450725Y-51036293D01*
X186459188Y-51054885D01*
X186467588Y-51073444D01*
X186475926Y-51091972D01*
X186484203Y-51110470D01*
X186492420Y-51128940D01*
X186500576Y-51147385D01*
X186508673Y-51165807D01*
X186516711Y-51184208D01*
X186524691Y-51202590D01*
X186532614Y-51220955D01*
X186540480Y-51239305D01*
X186548289Y-51257643D01*
X186556043Y-51275969D01*
X186563742Y-51294288D01*
X186571387Y-51312600D01*
X186578978Y-51330907D01*
X186586515Y-51349212D01*
X186594001Y-51367518D01*
X186601434Y-51385825D01*
X186608816Y-51404136D01*
X186616148Y-51422454D01*
X186623430Y-51440779D01*
X186630662Y-51459115D01*
X186637846Y-51477464D01*
X186644981Y-51495827D01*
X186652070Y-51514207D01*
X186659111Y-51532605D01*
X186666106Y-51551025D01*
X186673056Y-51569467D01*
X186679961Y-51587934D01*
X186686821Y-51606429D01*
X186693638Y-51624953D01*
X186700412Y-51643508D01*
X186707143Y-51662097D01*
X186713833Y-51680721D01*
X186720482Y-51699383D01*
X186727090Y-51718084D01*
X186733658Y-51736828D01*
X186740187Y-51755615D01*
X186746677Y-51774448D01*
X186753129Y-51793330D01*
X186759544Y-51812262D01*
X186765922Y-51831246D01*
X186772264Y-51850284D01*
X186778571Y-51869379D01*
X186784842Y-51888533D01*
X186791080Y-51907748D01*
X186797284Y-51927025D01*
X186803455Y-51946367D01*
X186809593Y-51965776D01*
X186815700Y-51985255D01*
X186821776Y-52004804D01*
X186827822Y-52024427D01*
X186833837Y-52044125D01*
X186839824Y-52063901D01*
X186845781Y-52083757D01*
X186851711Y-52103694D01*
X186857614Y-52123715D01*
X186863490Y-52143822D01*
X186869340Y-52164017D01*
X186875164Y-52184302D01*
X186880964Y-52204679D01*
X186886740Y-52225150D01*
X186892492Y-52245718D01*
X186898221Y-52266385D01*
X186903928Y-52287152D01*
X186909613Y-52308022D01*
X186915277Y-52328996D01*
X186920921Y-52350077D01*
X186926545Y-52371268D01*
X186932150Y-52392569D01*
X186937737Y-52413984D01*
X186943305Y-52435514D01*
X186948857Y-52457161D01*
X186954392Y-52478928D01*
X186959910Y-52500817D01*
X186965414Y-52522829D01*
X186970903Y-52544967D01*
X186976377Y-52567233D01*
X186981839Y-52589628D01*
X186987287Y-52612156D01*
X186992723Y-52634818D01*
X186998148Y-52657616D01*
X187003562Y-52680553D01*
X187008965Y-52703630D01*
X187014359Y-52726850D01*
X187019743Y-52750214D01*
X187025119Y-52773725D01*
X187030488Y-52797385D01*
X187035849Y-52821196D01*
X187041204Y-52845160D01*
X187046553Y-52869279D01*
X187051896Y-52893556D01*
X187057235Y-52917992D01*
X187062570Y-52942589D01*
X187067901Y-52967350D01*
X187073230Y-52992276D01*
X187078557Y-53017370D01*
X187083882Y-53042634D01*
X187089206Y-53068070D01*
X187094530Y-53093680D01*
X187099854Y-53119467D01*
X187105180Y-53145431D01*
X187110507Y-53171576D01*
X187115836Y-53197903D01*
X187121168Y-53224415D01*
X187126504Y-53251113D01*
X187131844Y-53278000D01*
X187137188Y-53305078D01*
X187142538Y-53332349D01*
X187147895Y-53359815D01*
X187153257Y-53387478D01*
X187158627Y-53415340D01*
X187164005Y-53443404D01*
X187169392Y-53471670D01*
X187174788Y-53500143D01*
X187180193Y-53528823D01*
X187185610Y-53557713D01*
X187191037Y-53586815D01*
X187196475Y-53616130D01*
X187201927Y-53645662D01*
X187207391Y-53675411D01*
X187212869Y-53705381D01*
X187218361Y-53735573D01*
X187223867Y-53765990D01*
X187229390Y-53796633D01*
X187234928Y-53827505D01*
X187240483Y-53858607D01*
X187246056Y-53889943D01*
X187251646Y-53921513D01*
X187257255Y-53953320D01*
X187262884Y-53985366D01*
X187268532Y-54017653D01*
X187274201Y-54050184D01*
X187279891Y-54082960D01*
X187285603Y-54115984D01*
X187291337Y-54149257D01*
X187297094Y-54182782D01*
X187308680Y-54250595D01*
X187320366Y-54319440D01*
X187332156Y-54389334D01*
X187344056Y-54460293D01*
X187356071Y-54532334D01*
X187368206Y-54605475D01*
X187380465Y-54679731D01*
X187392855Y-54755120D01*
X187405379Y-54831659D01*
X187418043Y-54909364D01*
X187430853Y-54988251D01*
X187443812Y-55068339D01*
X187456926Y-55149643D01*
X187470201Y-55232181D01*
X187483640Y-55315968D01*
X187497250Y-55401023D01*
X187511035Y-55487361D01*
X187525000Y-55575000D01*
X176850000Y-36500001D02*
X176895052Y-36553439D01*
X176939893Y-36606502D01*
X176984526Y-36659197D01*
X177028958Y-36711532D01*
X177073193Y-36763511D01*
X177117237Y-36815144D01*
X177161095Y-36866436D01*
X177204772Y-36917394D01*
X177248275Y-36968028D01*
X177291610Y-37018343D01*
X177334783Y-37068349D01*
X177377800Y-37118053D01*
X177420669Y-37167465D01*
X177463397Y-37216593D01*
X177505991Y-37265446D01*
X177548459Y-37314034D01*
X177590810Y-37362367D01*
X177633053Y-37410456D01*
X177675196Y-37458312D01*
X177717250Y-37505947D01*
X177759225Y-37553372D01*
X177801132Y-37600602D01*
X177842984Y-37647649D01*
X177884793Y-37694528D01*
X177926572Y-37741256D01*
X177968337Y-37787848D01*
X178010103Y-37834324D01*
X178051888Y-37880702D01*
X178093711Y-37927004D01*
X178135592Y-37973253D01*
X178177555Y-38019473D01*
X178219624Y-38065693D01*
X178261828Y-38111944D01*
X178304197Y-38158259D01*
X178346767Y-38204676D01*
X178389578Y-38251240D01*
X178432675Y-38297998D01*
X178476110Y-38345007D01*
X178519945Y-38392333D01*
X178564251Y-38440050D01*
X178609112Y-38488251D01*
X178654632Y-38537044D01*
X178700935Y-38586563D01*
X178748179Y-38636973D01*
X178796565Y-38688487D01*
X178846357Y-38741385D01*
X178897916Y-38796047D01*
X178951757Y-38853017D01*
X179008667Y-38913121D01*
X179069951Y-38977737D01*
X179138112Y-39049495D01*
X179219309Y-39134877D01*
X179274231Y-39192597D01*
X179342300Y-39264138D01*
X179409263Y-39334562D01*
X179442347Y-39369387D01*
X179475174Y-39403971D01*
X179507752Y-39438327D01*
X179540087Y-39472468D01*
X179572187Y-39506406D01*
X179604057Y-39540154D01*
X179635704Y-39573726D01*
X179667136Y-39607133D01*
X179698359Y-39640388D01*
X179729380Y-39673505D01*
X179760205Y-39706495D01*
X179790841Y-39739373D01*
X179821295Y-39772150D01*
X179851574Y-39804839D01*
X179881685Y-39837454D01*
X179911634Y-39870006D01*
X179926549Y-39886263D01*
X179941427Y-39902509D01*
X179956268Y-39918746D01*
X179971073Y-39934975D01*
X179985842Y-39951199D01*
X180000577Y-39967418D01*
X180015278Y-39983634D01*
X180029946Y-39999849D01*
X180044582Y-40016064D01*
X180059187Y-40032282D01*
X180073761Y-40048503D01*
X180088307Y-40064729D01*
X180102823Y-40080962D01*
X180117312Y-40097204D01*
X180131774Y-40113455D01*
X180146209Y-40129718D01*
X180160620Y-40145995D01*
X180175006Y-40162286D01*
X180189368Y-40178593D01*
X180203708Y-40194918D01*
X180218026Y-40211263D01*
X180232322Y-40227630D01*
X180246599Y-40244018D01*
X180260856Y-40260432D01*
X180275095Y-40276871D01*
X180289316Y-40293338D01*
X180303520Y-40309833D01*
X180317708Y-40326360D01*
X180331881Y-40342919D01*
X180346040Y-40359512D01*
X180360185Y-40376140D01*
X180374318Y-40392806D01*
X180388439Y-40409510D01*
X180402548Y-40426255D01*
X180416648Y-40443041D01*
X180430739Y-40459871D01*
X180444821Y-40476746D01*
X180458896Y-40493668D01*
X180472964Y-40510638D01*
X180487026Y-40527658D01*
X180501083Y-40544729D01*
X180515136Y-40561854D01*
X180529186Y-40579033D01*
X180543233Y-40596268D01*
X180557278Y-40613562D01*
X180571323Y-40630915D01*
X180585368Y-40648328D01*
X180599413Y-40665805D01*
X180613460Y-40683346D01*
X180627510Y-40700952D01*
X180641563Y-40718626D01*
X180655621Y-40736369D01*
X180669684Y-40754183D01*
X180683752Y-40772069D01*
X180697827Y-40790029D01*
X180711910Y-40808064D01*
X180726002Y-40826176D01*
X180740103Y-40844367D01*
X180754214Y-40862638D01*
X180768335Y-40880991D01*
X180782469Y-40899427D01*
X180796616Y-40917948D01*
X180810776Y-40936556D01*
X180824950Y-40955252D01*
X180839139Y-40974037D01*
X180853345Y-40992915D01*
X180867568Y-41011885D01*
X180881808Y-41030949D01*
X180896067Y-41050110D01*
X180910345Y-41069369D01*
X180924644Y-41088727D01*
X180938963Y-41108186D01*
X180953305Y-41127747D01*
X180967670Y-41147413D01*
X180982058Y-41167184D01*
X180996470Y-41187063D01*
X181010908Y-41207050D01*
X181025372Y-41227149D01*
X181039864Y-41247359D01*
X181054383Y-41267683D01*
X181068930Y-41288122D01*
X181083508Y-41308678D01*
X181098115Y-41329353D01*
X181112754Y-41350148D01*
X181127425Y-41371064D01*
X181142129Y-41392104D01*
X181156867Y-41413269D01*
X181171639Y-41434560D01*
X181186447Y-41455979D01*
X181201291Y-41477528D01*
X181216173Y-41499208D01*
X181231092Y-41521021D01*
X181246050Y-41542969D01*
X181261048Y-41565053D01*
X181276086Y-41587274D01*
X181291165Y-41609634D01*
X181306287Y-41632136D01*
X181321452Y-41654779D01*
X181336661Y-41677567D01*
X181351914Y-41700501D01*
X181367214Y-41723581D01*
X181382559Y-41746811D01*
X181397952Y-41770191D01*
X181413393Y-41793723D01*
X181428883Y-41817408D01*
X181444422Y-41841249D01*
X181460012Y-41865247D01*
X181475654Y-41889403D01*
X181491348Y-41913719D01*
X181507096Y-41938196D01*
X181522897Y-41962837D01*
X181538753Y-41987643D01*
X181554665Y-42012615D01*
X181570633Y-42037755D01*
X181586659Y-42063064D01*
X181602743Y-42088545D01*
X181618886Y-42114198D01*
X181635089Y-42140026D01*
X181651353Y-42166030D01*
X181667678Y-42192211D01*
X181684066Y-42218571D01*
X181700517Y-42245112D01*
X181717032Y-42271836D01*
X181733612Y-42298743D01*
X181750258Y-42325836D01*
X181766971Y-42353116D01*
X181783751Y-42380585D01*
X181800599Y-42408244D01*
X181817517Y-42436095D01*
X181834505Y-42464140D01*
X181851563Y-42492380D01*
X181868694Y-42520816D01*
X181885897Y-42549451D01*
X181903173Y-42578285D01*
X181920523Y-42607321D01*
X181937949Y-42636560D01*
X181955451Y-42666004D01*
X181973029Y-42695654D01*
X181990685Y-42725512D01*
X182008419Y-42755579D01*
X182026233Y-42785858D01*
X182044127Y-42816349D01*
X182062102Y-42847054D01*
X182080159Y-42877976D01*
X182098298Y-42909114D01*
X182116521Y-42940472D01*
X182134829Y-42972050D01*
X182153221Y-43003851D01*
X182171700Y-43035875D01*
X182190266Y-43068125D01*
X182208919Y-43100602D01*
X182227661Y-43133307D01*
X182246492Y-43166243D01*
X182265414Y-43199411D01*
X182284426Y-43232811D01*
X182303531Y-43266447D01*
X182322729Y-43300320D01*
X182342020Y-43334430D01*
X182361405Y-43368781D01*
X182380886Y-43403373D01*
X182400463Y-43438208D01*
X182420138Y-43473287D01*
X182439910Y-43508612D01*
X182459780Y-43544186D01*
X182479751Y-43580008D01*
X182499821Y-43616082D01*
X182519993Y-43652408D01*
X182540267Y-43688989D01*
X182560644Y-43725825D01*
X182581125Y-43762918D01*
X182601710Y-43800270D01*
X182622401Y-43837883D01*
X182643198Y-43875758D01*
X182664102Y-43913897D01*
X182685115Y-43952301D01*
X182706236Y-43990972D01*
X182727466Y-44029912D01*
X182748808Y-44069121D01*
X182770260Y-44108602D01*
X182791825Y-44148357D01*
X182813503Y-44188386D01*
X182835295Y-44228692D01*
X182857201Y-44269276D01*
X182879223Y-44310140D01*
X182901362Y-44351285D01*
X182923617Y-44392713D01*
X182945991Y-44434425D01*
X182968484Y-44476424D01*
X182991097Y-44518710D01*
X183013830Y-44561285D01*
X183036684Y-44604151D01*
X183059662Y-44647310D01*
X183082762Y-44690763D01*
X183105986Y-44734511D01*
X183129335Y-44778557D01*
X183152810Y-44822901D01*
X183176411Y-44867546D01*
X183200140Y-44912492D01*
X183223997Y-44957743D01*
X183247983Y-45003299D01*
X183272098Y-45049161D01*
X183296345Y-45095332D01*
X183320723Y-45141813D01*
X183345234Y-45188605D01*
X183369878Y-45235711D01*
X183394656Y-45283131D01*
X183419569Y-45330868D01*
X183444618Y-45378923D01*
X183469804Y-45427297D01*
X183495127Y-45475993D01*
X183520588Y-45525011D01*
X183546189Y-45574354D01*
X183571929Y-45624022D01*
X183597811Y-45674019D01*
X183623834Y-45724344D01*
X183650000Y-45775000D01*
D10*
X176717535Y-36549992D02*
G75*
G02*
X176850000Y-36500000I11545865J-30392808D01*
G01*
X104675000Y-28925000D02*
X114675000Y-37850000D01*
X114675000Y-37850000D02*
X121425000Y-37850000D01*
X179000000Y-159475000D02*
X179000000Y-147850000D01*
X121425000Y-37850000D02*
X150625000Y-66775000D01*
X59800000Y-29200000D02*
X59800000Y-157325000D01*
X122525000Y-147600000D02*
X151175000Y-118675000D01*
X226050000Y-159475000D02*
X179000000Y-159475000D01*
X59800000Y-29200000D02*
X104675000Y-28925000D01*
X150625000Y-66775000D02*
X188200000Y-66775000D01*
X226050000Y-146775000D02*
X226050000Y-159475000D01*
X176850000Y-27250000D02*
X226050000Y-26775000D01*
X176850000Y-27250000D02*
X176717535Y-36549993D01*
X226050000Y-26775000D02*
X226050000Y-146775000D01*
X151175000Y-118675000D02*
X188200000Y-118675000D01*
M02*
